<svg width="113.333328" height="136.000000" viewBox="0 0 113.333 136" fill="none" xmlns="http://www.w3.org/2000/svg" xmlns:xlink="http://www.w3.org/1999/xlink">
	<desc>
			Created with Pixso.
	</desc>
	<defs/>
	<path id="Vector" d="M49.266 86.1705C48.7115 85.5419 47.9934 85.0907 47.1973 84.8708C46.4013 84.651 45.5607 84.6716 44.7757 84.9303L37.0885 87.4546C36.668 87.5934 36.224 87.6399 35.785 87.5912C35.346 87.5426 34.9217 87.3998 34.5394 87.1719C34.1572 86.9441 33.8253 86.6364 33.5653 86.2684C33.3052 85.9006 33.1226 85.4806 33.0293 85.0356L31.3047 76.9102C31.1273 76.0802 30.7231 75.3198 30.14 74.7191C29.557 74.1184 28.8193 73.7024 28.0142 73.5201L27.6511 73.4382L0 115.203L22.5226 113.653L28.7914 136L57.0411 93.3864C56.6 93.389 56.1634 93.2953 55.76 93.1113C55.3566 92.9272 54.9956 92.6572 54.7009 92.3187L49.266 86.1705Z" fill="#A78BFA" fill-opacity="1.000000" fill-rule="nonzero"/>
	<path id="Vector" d="M49.266 86.1704C48.8628 85.7117 48.3713 85.3446 47.8228 85.0928C47.2743 84.8409 46.6809 84.71 46.0805 84.7079C45.6376 84.7076 45.1973 84.7787 44.7757 84.9186L37.0885 87.4427C36.6678 87.5815 36.2236 87.6282 35.7844 87.5795C35.3453 87.5309 34.9208 87.3881 34.5383 87.1603C34.1558 86.9325 33.8237 86.6248 33.5634 86.2568C33.303 85.8889 33.1201 85.4689 33.0265 85.0238L32.1755 80.9933L9.38913 114.557L22.5197 113.653L26.1761 126.681L51.765 88.9988L49.266 86.1704ZM64.0617 86.1704C64.6162 85.5417 65.3342 85.0906 66.1303 84.8707C66.9264 84.6509 67.767 84.6715 68.552 84.9302L76.2392 87.4545C76.6597 87.5933 77.1037 87.6398 77.5427 87.5912C77.9817 87.5425 78.4059 87.3997 78.7882 87.1719C79.1705 86.944 79.5023 86.6362 79.7624 86.2683C80.0224 85.9005 80.205 85.4805 80.2983 85.0355L82.023 76.91C82.2005 76.0804 82.6048 75.3206 83.1879 74.7203C83.771 74.1201 84.5086 73.7046 85.3134 73.5229L85.6765 73.441L113.333 115.203L90.8107 113.653L84.5419 136L56.2866 93.3862C56.7276 93.3889 57.1643 93.2953 57.5677 93.1112C57.9711 92.9271 58.332 92.6571 58.6268 92.3186L64.0617 86.1704Z" fill="#A78BFA" fill-opacity="1.000000" fill-rule="nonzero"/>
	<path id="Vector" d="M64.0618 86.1704C64.6163 85.5417 65.3344 85.0907 66.1304 84.8708C66.9265 84.651 67.7671 84.6716 68.5521 84.9303L76.2393 87.4545C76.6598 87.5933 77.1038 87.6399 77.5428 87.5912C77.9818 87.5425 78.4061 87.3997 78.7883 87.1719C79.1706 86.9441 79.5025 86.6364 79.7625 86.2684C80.0226 85.9005 80.2052 85.4806 80.2985 85.0355L81.1495 81.005L103.933 114.557L90.7995 113.653L87.146 126.681L61.5628 88.9989L64.0618 86.1704Z" fill="#A78BFA" fill-opacity="1.000000" fill-rule="nonzero"/>
	<path id="Vector" d="M67.8341 89.7715L75.2093 92.1934C76.2693 92.5419 77.3882 92.6582 78.4944 92.535C79.6005 92.4117 80.6696 92.0518 81.633 91.4779C82.5964 90.9042 83.433 90.1292 84.0892 89.2028C84.7454 88.2762 85.2068 87.2188 85.4437 86.0978L87.0946 78.3057L88.6604 77.9547L85.6735 73.4415L85.3104 73.5234C84.5066 73.7061 83.7702 74.1221 83.1882 74.7222C82.6062 75.3224 82.2028 76.0817 82.0256 76.9105L80.3009 85.036C80.2076 85.481 80.0251 85.901 79.765 86.2688C79.5049 86.6367 79.1731 86.9445 78.7908 87.1724C78.4086 87.4001 77.9843 87.543 77.5453 87.5917C77.1063 87.6403 76.6623 87.5938 76.2418 87.455L68.5546 84.9308C67.7696 84.672 66.929 84.6514 66.1329 84.8712C65.3369 85.0911 64.6188 85.5422 64.0643 86.1709L58.6294 92.3132C58.3965 92.6213 58.0985 92.8706 57.7581 93.0421C57.4177 93.2135 57.0439 93.3026 56.665 93.3026C56.2862 93.3026 55.9124 93.2135 55.572 93.0421C55.2316 92.8706 54.9336 92.6213 54.7007 92.3132L49.2686 86.1709C48.8654 85.7122 48.3739 85.3451 47.8254 85.0933C47.2769 84.8414 46.6835 84.7104 46.0831 84.7084C45.6402 84.7081 45.1999 84.7792 44.7783 84.9191L37.0911 87.4432C36.6704 87.582 36.2262 87.6287 35.7871 87.58C35.3479 87.5314 34.9234 87.3885 34.5409 87.1608C34.1584 86.933 33.8264 86.6252 33.566 86.2573C33.3056 85.8894 33.1228 85.4694 33.0291 85.0243L31.3073 76.8988C31.1273 76.0712 30.7216 75.3137 30.1382 74.7157C29.5547 74.1177 28.8178 73.7041 28.014 73.5234L27.6537 73.4415L24.681 77.9401L26.3376 78.3115L27.9885 86.1036C28.226 87.2244 28.6879 88.2816 29.3446 89.2076C30.0013 90.1337 30.8382 90.9082 31.8019 91.4814C32.7656 92.0547 33.8348 92.4141 34.9409 92.5367C36.0471 92.6593 37.1659 92.5424 38.2257 92.1934L45.581 89.751L50.8089 95.6682C51.7072 96.6661 52.8321 97.418 54.0823 97.8561L56.6636 93.9572L59.2676 97.8824C60.5501 97.4496 61.7048 96.6876 62.6233 95.6682L67.8341 89.7715Z" fill="#7C3AED" fill-opacity="1.000000" fill-rule="nonzero"/>
	<path id="Vector" d="M49.2664 86.1705C48.8633 85.7118 48.3717 85.3447 47.8232 85.0929C47.2747 84.8412 46.6813 84.7101 46.0809 84.7081C45.638 84.7079 45.1978 84.7789 44.7761 84.9187L37.0889 87.4429C36.6682 87.5817 36.2241 87.6283 35.7849 87.5796C35.3457 87.531 34.9213 87.3882 34.5388 87.1604C34.1563 86.9326 33.8242 86.6249 33.5638 86.257C33.3035 85.889 33.1206 85.4691 33.0269 85.0239L32.1759 80.9934L9.38957 114.557L22.5202 113.653L26.1765 126.681L51.7655 88.999L49.2664 86.1705ZM81.1554 81.0051L80.3045 85.0356C80.2111 85.4807 80.0286 85.9006 79.7685 86.2686C79.5084 86.6365 79.1766 86.9442 78.7943 87.172C78.412 87.3998 77.9878 87.5426 77.5488 87.5913C77.1098 87.64 76.6658 87.5934 76.2453 87.4546L68.5581 84.9304C67.7731 84.6716 66.9325 84.651 66.1364 84.871C65.3403 85.0908 64.6223 85.5419 64.0678 86.1705L61.5688 88.999L87.1577 126.681L90.8112 113.653L103.945 114.557L81.1554 81.0051Z" fill="#8B5CF6" fill-opacity="1.000000" fill-rule="nonzero"/>
	<path id="Vector" d="M51.7654 88.999L49.2664 86.1705C48.8632 85.7118 48.3717 85.3447 47.8232 85.0929C47.2747 84.8412 46.6813 84.7101 46.0809 84.7081C45.638 84.7079 45.1977 84.7789 44.7761 84.9187L37.0889 87.4429C36.6682 87.5817 36.224 87.6283 35.7849 87.5796C35.3457 87.531 34.9212 87.3882 34.5387 87.1604C34.1562 86.9326 33.8242 86.6249 33.5638 86.257C33.3034 85.889 33.1206 85.4691 33.0269 85.0239L32.1759 80.9934L28.2047 86.8433C28.8475 88.9218 30.2637 90.6523 32.1426 91.6553C34.0214 92.6582 36.2094 92.8517 38.2264 92.193L45.5817 89.7507L48.7899 93.3834L51.7683 88.9961L51.7654 88.999ZM75.2071 92.193C77.2051 92.8494 79.3733 92.6694 81.2439 91.6921C83.1145 90.7148 84.5375 89.0186 85.2061 86.9691L81.1554 81.0051L80.3044 85.0356C80.2111 85.4807 80.0285 85.9006 79.7685 86.2686C79.5084 86.6365 79.1766 86.9442 78.7943 87.172C78.412 87.3998 77.9877 87.5426 77.5488 87.5913C77.1098 87.64 76.6658 87.5934 76.2453 87.4546L68.5581 84.9304C67.7731 84.6716 66.9325 84.651 66.1364 84.871C65.3403 85.0908 64.6223 85.5419 64.0678 86.1705L61.5687 88.999L64.584 93.442L67.8348 89.7654L75.2071 92.193Z" fill="#A78BFA" fill-opacity="1.000000" fill-rule="nonzero"/>
	<path id="Vector" d="M85.8609 19.8708L93.7438 21.6462C94.2519 21.7614 94.7311 21.9844 95.1509 22.3013C95.5707 22.618 95.9218 23.0217 96.1818 23.4863C96.4418 23.9509 96.605 24.4663 96.6609 24.9996C96.7168 25.533 96.6643 26.0724 96.5066 26.5836L94.0586 34.5101C93.8417 35.2129 93.8247 35.965 94.0097 36.6774C94.1947 37.3896 94.574 38.0323 95.1025 38.5291L101.059 44.1304C101.444 44.4916 101.752 44.9318 101.962 45.4226C102.172 45.9135 102.281 46.4441 102.281 46.9807C102.281 47.5173 102.172 48.048 101.962 48.5388C101.752 49.0297 101.444 49.4697 101.059 49.8311L95.1025 55.4353C94.5737 55.9318 94.1942 56.5745 94.0091 57.2869C93.8241 57.9993 93.8413 58.7515 94.0586 59.4541L96.5066 67.3807C96.6643 67.8917 96.7168 68.431 96.6608 68.9641C96.6049 69.4973 96.4417 70.0125 96.1817 70.4769C95.9216 70.9413 95.5705 71.3446 95.1507 71.6611C94.731 71.9777 94.2518 72.2004 93.7438 72.3152L85.8609 74.0935C85.1621 74.2511 84.5218 74.6121 84.016 75.1337C83.5102 75.6552 83.1601 76.3154 83.0073 77.036L81.2826 85.1615C81.1721 85.6858 80.9566 86.1805 80.6498 86.6139C80.3431 87.0474 79.952 87.4099 79.5014 87.6783C79.0509 87.9469 78.551 88.1154 78.0337 88.173C77.5163 88.2307 76.9931 88.1763 76.4973 88.0133L68.8101 85.4891C68.1288 85.2643 67.3991 85.2461 66.7081 85.437C66.017 85.6278 65.3938 86.0195 64.9126 86.5654L59.4777 92.7079C59.1276 93.1046 58.701 93.4215 58.2253 93.6383C57.7495 93.8551 57.235 93.9672 56.7149 93.9672C56.1947 93.9672 55.6803 93.8551 55.2045 93.6383C54.7288 93.4215 54.3022 93.1046 53.952 92.7079L48.5171 86.5654C48.036 86.0195 47.4127 85.6278 46.7217 85.437C46.0307 85.2461 45.301 85.2643 44.6196 85.4891L36.9325 88.0133C36.4367 88.1763 35.9134 88.2307 35.3961 88.173C34.8788 88.1154 34.3788 87.9469 33.9283 87.6783C33.4778 87.4099 33.0867 87.0474 32.7799 86.6139C32.4732 86.1805 32.2577 85.6858 32.1471 85.1615L30.4225 77.036C30.2697 76.3154 29.9196 75.6552 29.4138 75.1337C28.908 74.6121 28.2677 74.2511 27.5689 74.0935L19.686 72.3152C19.178 72.2004 18.6988 71.9777 18.279 71.6611C17.8592 71.3446 17.5081 70.9413 17.2481 70.4769C16.9881 70.0125 16.8249 69.4973 16.7689 68.9641C16.713 68.431 16.7655 67.8917 16.9231 67.3807L19.3711 59.4541C19.5885 58.7515 19.6056 57.9993 19.4206 57.2869C19.2356 56.5745 18.8561 55.9318 18.3272 55.4353L12.3704 49.8311C11.9856 49.4697 11.6782 49.0297 11.4679 48.5388C11.2576 48.048 11.1489 47.5173 11.1489 46.9807C11.1489 46.4441 11.2576 45.9135 11.4679 45.4226C11.6782 44.9318 11.9856 44.4916 12.3704 44.1304L18.3272 38.5291C18.8558 38.0323 19.2351 37.3896 19.4201 36.6774C19.6051 35.965 19.5881 35.2129 19.3711 34.5101L16.9231 26.5836C16.7655 26.0724 16.713 25.533 16.7689 24.9996C16.8248 24.4663 16.988 23.9509 17.248 23.4863C17.508 23.0217 17.8591 22.618 18.2789 22.3013C18.6986 21.9844 19.1779 21.7614 19.686 21.6462L27.5689 19.8708C28.2677 19.7133 28.908 19.3523 29.4138 18.8307C29.9196 18.3092 30.2697 17.6489 30.4225 16.9283L32.1471 8.79993C32.258 8.27588 32.4738 7.78149 32.7806 7.34839C33.0875 6.91528 33.4787 6.5531 33.9292 6.28491C34.3797 6.01672 34.8795 5.84851 35.3966 5.79102C35.9138 5.73352 36.4369 5.78796 36.9325 5.95105L44.6196 8.47522C45.3011 8.69861 46.0304 8.71594 46.7211 8.52527C47.4119 8.33447 48.0351 7.9436 48.5171 7.3988L53.952 1.25647C54.3026 0.860596 54.7294 0.544434 55.2051 0.328125C55.6808 0.111694 56.195 0 56.7149 0C57.2348 0 57.749 0.111694 58.2247 0.328125C58.7004 0.544434 59.1271 0.860596 59.4777 1.25647L64.9126 7.3988C65.3946 7.9436 66.0179 8.33447 66.7086 8.52527C67.3994 8.71594 68.1286 8.69861 68.8101 8.47522L76.4973 5.95105C76.9928 5.78796 77.516 5.73352 78.0331 5.79102C78.5503 5.84851 79.0501 6.01672 79.5006 6.28491C79.9511 6.5531 80.3423 6.91528 80.6491 7.34839C80.956 7.78149 81.1718 8.27588 81.2826 8.79993L83.0073 16.9283C83.1601 17.6489 83.5102 18.3092 84.016 18.8307C84.5218 19.3523 85.1621 19.7133 85.8609 19.8708Z" fill="#6D28D9" fill-opacity="1.000000" fill-rule="nonzero"/>
	<path id="Vector" d="M86.2444 46.9938C86.2382 52.636 84.7119 58.1654 81.8356 62.9652C78.9594 67.765 74.8463 71.6464 69.9554 74.1763C65.0644 76.7061 59.588 77.7848 54.1371 77.2921C48.6863 76.7996 43.4753 74.7549 39.0858 71.3862C34.6962 68.0177 31.3007 63.4578 29.278 58.2152C27.2554 52.9727 26.6851 47.2537 27.631 41.6964C28.5768 36.1392 31.0015 30.9622 34.6345 26.743C38.2675 22.524 42.966 19.4288 48.2056 17.8029C50.9648 16.942 53.8327 16.5083 56.7154 16.5159C60.5955 16.5162 64.4375 17.3051 68.0218 18.8372C71.606 20.3694 74.8624 22.6149 77.6047 25.4453C80.347 28.2758 82.5216 31.6356 84.004 35.333C85.4864 39.0305 86.2477 42.9929 86.2444 46.9938Z" fill="#A78BFA" fill-opacity="1.000000" fill-rule="nonzero"/>
	<path id="Vector" d="M86.2438 46.9938C86.2466 52.1512 84.9776 57.2249 82.5561 61.7377C80.1347 66.2505 76.6402 70.0543 72.4012 72.7919C69.642 73.6526 66.7741 74.0863 63.8914 74.0787C57.4777 74.0826 51.237 71.9337 46.1124 67.9568C40.9879 63.9799 37.2579 58.391 35.4862 52.0348C33.7145 45.6787 33.9973 38.9006 36.2919 32.7249C38.5865 26.5491 42.7682 21.3113 48.205 17.8029C50.9642 16.942 53.8321 16.5083 56.7148 16.5159C60.5949 16.5162 64.4368 17.3051 68.0211 18.8372C71.6055 20.3694 74.8618 22.6149 77.6041 25.4453C80.3464 28.2758 82.521 31.6356 84.0034 35.333C85.4858 39.0304 86.2471 42.9928 86.2438 46.9938Z" fill="#8B5CF6" fill-opacity="1.000000" fill-rule="nonzero"/>
	<path id="Vector" d="M58.8649 65.7809C58.3007 65.7809 57.7596 65.5497 57.3606 65.1383C56.9616 64.7269 56.7375 64.1689 56.7375 63.5872L56.7375 36.3851L51.2515 40.2489C51.021 40.418 50.76 40.5378 50.484 40.6017C50.208 40.6654 49.9224 40.6719 49.644 40.6205C49.3655 40.5691 49.0998 40.4609 48.8624 40.3024C48.625 40.1438 48.4206 39.938 48.2612 39.697C48.1018 39.4561 47.9906 39.1848 47.9342 38.8989C47.8777 38.6132 47.8771 38.3186 47.9323 38.0326C47.9876 37.7465 48.0976 37.4746 48.256 37.2329C48.4143 36.9912 48.6178 36.7845 48.8546 36.625L57.665 30.4182C57.9848 30.193 58.3582 30.062 58.7448 30.0396C59.1314 30.017 59.5167 30.1036 59.8591 30.2903C60.2014 30.4768 60.4879 30.7562 60.6876 31.0984C60.8873 31.4406 60.9927 31.8324 60.9924 32.2317L60.9924 63.5872C60.9924 64.1689 60.7682 64.7269 60.3692 65.1383C59.9703 65.5497 59.4292 65.7809 58.8649 65.7809Z" fill="#F5F3FF" fill-opacity="1.000000" fill-rule="nonzero"/>
</svg>
