<svg width="136.000000" height="136.000000" viewBox="0 0 136 136" fill="none" xmlns="http://www.w3.org/2000/svg" xmlns:xlink="http://www.w3.org/1999/xlink">
	<desc>
			Created with Pixso.
	</desc>
	<defs>
		<clipPath id="clip2_562">
			<rect id="Icon / clear info" width="136.000000" height="136.000000" fill="white" fill-opacity="0"/>
		</clipPath>
	</defs>
	<g clip-path="url(#clip2_562)">
		<path id="Vector" d="M87.7142 110.1L87.7142 119L48.2808 119L48.2808 110.1L57.6883 110.1L59.3456 95.0522L59.7355 91.4684L59.7355 91.3972L76.2352 91.3972L76.2595 91.4684L76.6495 95.0522L78.3068 110.1L87.7142 110.1Z" fill="#8B5CF6" fill-opacity="1.000000" fill-rule="nonzero"/>
		<path id="Vector" d="M76.6497 95.0522L59.3458 95.0522L59.7357 91.4684L59.7357 91.3972L76.2354 91.3972L76.2597 91.4684L76.6497 95.0522Z" fill="#7C3AED" fill-opacity="1.000000" fill-rule="nonzero"/>
		<path id="Vector" d="M78.297 110.093L48.2759 110.093L48.2759 118.99L87.7191 118.99L87.7191 110.093L78.297 110.093Z" fill="#A78BFA" fill-opacity="1.000000" fill-rule="nonzero"/>
		<path id="Vector" d="M120.64 17L15.3547 17C14.2872 17.0026 13.2644 17.4172 12.5106 18.1532C11.7567 18.889 11.3333 19.8861 11.3333 20.9257L11.3333 87.538C11.3333 88.5775 11.7567 89.5746 12.5106 90.3104C13.2644 91.0464 14.2872 91.4611 15.3547 91.4636L120.397 91.4636C120.958 91.464 121.513 91.3566 122.031 91.1477C122.549 90.9388 123.02 90.6326 123.417 90.2463C123.813 89.8602 124.128 89.4017 124.342 88.8971C124.557 88.3923 124.667 87.8516 124.667 87.3054L124.667 20.9257C124.667 19.8853 124.243 18.8876 123.488 18.1515C122.733 17.4154 121.709 17.0012 120.64 17Z" fill="#C4B5FD" fill-opacity="1.000000" fill-rule="nonzero"/>
		<path id="Vector" d="M18.8154 23.8025L117.18 23.8025L117.18 77.9877L18.8154 77.9877L18.8154 23.8025Z" fill="#4C1D95" fill-opacity="1.000000" fill-rule="nonzero"/>
		<path id="Vector" d="M117.18 23.8025L117.18 73.0509L40.8961 73.0509C37.0313 73.0491 33.3254 71.5531 30.5927 68.8917C27.8599 66.2305 26.3237 62.6216 26.3218 58.8579L26.3218 23.8025L117.18 23.8025Z" fill="#6D28D9" fill-opacity="1.000000" fill-rule="nonzero"/>
		<path id="Vector" d="M102.313 61.9194C102.344 61.8434 102.385 61.7716 102.435 61.7058L102.435 61.682C103.121 60.5421 103.677 59.3324 104.092 58.0745C105.223 54.5516 105.201 50.7738 104.029 47.2635C102.858 43.7534 100.596 40.6846 97.5547 38.4817C94.5138 36.2789 90.8449 35.0511 87.0559 34.9683C83.2669 34.8854 79.5452 35.9514 76.4057 38.019C74.2374 39.4359 72.4153 41.2996 71.0683 43.4779C69.8209 45.474 68.9897 47.6899 68.622 49.999C68.2544 52.3081 68.3575 54.6652 68.9257 56.9353C69.4938 59.2056 70.5156 61.3446 71.9329 63.2301C73.3502 65.1156 75.1351 66.7107 77.1855 67.9241C80.1012 69.5844 83.4108 70.476 86.788 70.5111C88.6978 70.5251 90.5952 70.2118 92.3935 69.5856C93.6727 69.1309 94.9117 68.5752 96.098 67.9241L96.1224 67.9479L101.362 73.0507L113.719 73.0507C108.406 67.9004 102.313 61.9431 102.313 61.9194Z" fill="#4C1D95" fill-opacity="1.000000" fill-rule="nonzero"/>
		<path id="Vector" d="M122.542 84.6139C122.355 85.3545 121.958 86.0289 121.396 86.5601C120.575 87.35 119.467 87.793 118.313 87.793C117.159 87.793 116.051 87.35 115.23 86.5601L106.432 77.9921L117.18 77.9921L117.18 76.4493L121.396 80.5553C121.94 81.0715 122.333 81.7197 122.535 82.4331C122.736 83.1466 122.738 83.8993 122.542 84.6139Z" fill="#DDD6FE" fill-opacity="1.000000" fill-rule="nonzero"/>
		<path id="Vector" d="M117.18 76.4446L117.18 77.9873L106.432 77.9873L101.363 73.0505L113.719 73.0505C114.938 74.2373 116.132 75.4003 117.18 76.4446Z" fill="#5B21B6" fill-opacity="1.000000" fill-rule="nonzero"/>
		<path id="Vector" d="M123.382 78.7377L104.28 60.1348C106.585 56.4188 107.414 52.0095 106.61 47.7391C105.806 43.4688 103.424 39.6328 99.9142 36.9557C96.4044 34.2784 92.0097 32.9452 87.5596 33.2075C83.1096 33.4698 78.912 35.3097 75.7596 38.3798C72.6072 41.4497 70.718 45.5374 70.4485 49.8711C70.1791 54.2047 71.5482 58.4845 74.2973 61.9023C77.0464 65.3203 80.9854 67.6399 85.3704 68.4231C89.7555 69.2063 94.2833 68.399 98.0991 66.1538L117.202 84.759C118.021 85.5566 119.133 86.0048 120.292 86.0048C121.451 86.0048 122.562 85.5566 123.382 84.759C124.202 83.9604 124.663 82.8774 124.663 81.7483C124.663 80.6191 124.202 79.5361 123.382 78.7377Z" fill="#A78BFA" fill-opacity="1.000000" fill-rule="nonzero"/>
		<path id="Vector" d="M106.91 50.9233C106.91 60.7465 98.7325 68.7097 88.6454 68.7097C78.5584 68.7097 70.3813 60.7465 70.3813 50.9233C70.3813 41.1002 78.5584 33.137 88.6454 33.137C98.7325 33.137 106.91 41.1002 106.91 50.9233Z" fill="#8B5CF6" fill-opacity="1.000000" fill-rule="evenodd"/>
		<path id="Vector" d="M123.382 78.7373L104.265 60.1155C103.5 61.3401 102.589 62.4729 101.553 63.4905C101.051 63.9772 100.521 64.4352 99.9659 64.8623L118.203 82.6179C119.023 83.4154 120.134 83.8635 121.292 83.8635C122.451 83.8635 123.562 83.4154 124.382 82.6179L124.611 82.3805C124.714 81.722 124.656 81.0492 124.443 80.4163C124.229 79.7834 123.866 79.2083 123.382 78.7373Z" fill="#C4B5FD" fill-opacity="1.000000" fill-rule="evenodd"/>
		<path id="Vector" d="M88.6453 33.137C84.2931 33.1327 80.0836 34.6484 76.7811 37.4092C74.4694 41.0121 73.5582 45.3019 74.2127 49.5023C74.8671 53.7028 77.0439 57.5364 80.3491 60.3094C83.6542 63.0824 87.8695 64.6117 92.2321 64.6206C96.5947 64.6295 100.817 63.1173 104.134 60.3577C105.863 57.6652 106.822 54.5707 106.908 51.3956C106.995 48.2207 106.207 45.0809 104.626 42.3029C103.045 39.5247 100.729 37.2094 97.9192 35.5975C95.1089 33.9857 91.9067 33.1361 88.6453 33.137Z" fill="#C4B5FD" fill-opacity="1.000000" fill-rule="nonzero"/>
	</g>
</svg>
