<svg width="136.000000" height="136.000000" viewBox="0 0 136 136" fill="none" xmlns="http://www.w3.org/2000/svg" xmlns:xlink="http://www.w3.org/1999/xlink">
	<desc>
			Created with Pixso.
	</desc>
	<defs>
		<clipPath id="clip2_521">
			<rect id="Icon / Package" width="136.000000" height="136.000000" fill="white" fill-opacity="0"/>
		</clipPath>
	</defs>
	<g clip-path="url(#clip2_521)">
		<path id="Vector" d="M64.6489 11.3333L11.3333 38.2847L11.3333 100.196L72.0654 124.667L72.0898 124.667L72.0898 124.654L124.667 93.6962L124.667 31.7943L64.6489 11.3333Z" fill="#DDD6FE" fill-opacity="1.000000" fill-rule="nonzero"/>
		<path id="Vector" d="M124.667 31.7943L64.6489 11.3333L11.3333 38.2847L11.3333 100.196L72.0654 124.667L72.0898 124.667L72.0898 62.7355L72.0776 62.7306L124.667 31.7943Z" fill="#C4B5FD" fill-opacity="1.000000" fill-rule="nonzero"/>
		<path id="Vector" d="M72.0898 62.7355L72.0898 124.667L72.0654 124.667L11.3333 100.196L11.3333 38.2896L18.4768 41.1655L72.0898 62.7355Z" fill="#8B5CF6" fill-opacity="1.000000" fill-rule="nonzero"/>
		<path id="Vector" d="M72.0898 62.7355L72.0898 116.161L32.1348 100.05C28.1016 98.4224 24.6469 95.6267 22.2142 92.0223C19.7815 88.4178 18.4818 84.1688 18.4817 79.8207L18.4817 41.1655L72.0898 62.7355Z" fill="#A78BFA" fill-opacity="1.000000" fill-rule="nonzero"/>
		<path id="Vector" d="M99.1284 23.0809L98.0557 23.6658L46.1737 52.3038L46.0762 72.2164L37.8599 69.1454L32.4962 67.1224L32.4962 46.8199L86.5724 18.8157L99.1284 23.0809Z" fill="#5B21B6" fill-opacity="1.000000" fill-rule="nonzero"/>
		<path id="Vector" d="M98.1158 23.6659L46.2338 52.304L46.1363 72.2164L37.92 69.1455L37.92 49.5985L92.0206 21.5942L98.1158 23.6659Z" fill="#6D28D9" fill-opacity="1.000000" fill-rule="nonzero"/>
	</g>
</svg>
