<svg width="136.000000" height="136.000000" viewBox="0 0 136 136" fill="none" xmlns="http://www.w3.org/2000/svg" xmlns:xlink="http://www.w3.org/1999/xlink">
	<desc>
			Created with Pixso.
	</desc>
	<defs>
		<clipPath id="clip2_532">
			<rect id="Icon / Delivery" width="136.000000" height="136.000000" fill="white" fill-opacity="0"/>
		</clipPath>
	</defs>
	<g clip-path="url(#clip2_532)">
		<path id="Vector" d="M134.59 74.2607L122.904 54.0471C122.615 53.5486 122.194 53.1337 121.682 52.8456C121.171 52.5575 120.589 52.4067 119.997 52.4089L101.922 52.4089L101.922 35.7215C101.92 35.2654 101.732 34.8284 101.398 34.5059C101.063 34.1833 100.61 34.0015 100.137 34L27.9222 34C27.4493 34.0015 26.9963 34.1833 26.662 34.5059C26.3278 34.8284 26.1392 35.2654 26.1377 35.7215L26.1377 90.1625C26.1377 90.8252 26.4106 91.4608 26.8964 91.9294C27.3822 92.3981 28.0411 92.6614 28.7281 92.6614L134.446 92.6614C134.65 92.6621 134.853 92.6238 135.042 92.5487C135.231 92.4736 135.402 92.3633 135.547 92.2239C135.691 92.0845 135.806 91.9189 135.884 91.7367C135.961 91.5544 136.001 91.3591 136 91.162L136 79.5364C136.001 77.691 135.516 75.8757 134.59 74.2607Z" fill="#8B5CF6" fill-opacity="1.000000" fill-rule="nonzero"/>
		<path id="Vector" d="M136.001 79.5359L136.001 87.3104L113.447 87.3104C112.054 87.3104 110.719 86.7769 109.735 85.827C108.75 84.8773 108.197 83.5891 108.197 82.2458L108.197 52.4084L119.998 52.4084C120.59 52.4062 121.172 52.5571 121.683 52.8452C122.194 53.1333 122.616 53.5481 122.905 54.0466L134.59 74.2604C135.516 75.8752 136.001 77.6906 136.001 79.5359Z" fill="#A78BFA" fill-opacity="1.000000" fill-rule="nonzero"/>
		<path id="Vector" d="M128.545 92.6696C128.555 94.5804 127.941 96.4458 126.79 98.0007C125.615 99.6309 123.932 100.856 121.985 101.499C120.037 102.141 117.928 102.167 115.965 101.571C114.002 100.976 112.287 99.7917 111.071 98.1904C109.855 96.5891 109.2 94.6548 109.204 92.6696C109.204 90.1953 110.223 87.8224 112.036 86.0728C113.85 84.3231 116.31 83.3402 118.875 83.3402C121.439 83.3402 123.899 84.3231 125.713 86.0728C127.526 87.8224 128.545 90.1953 128.545 92.6696Z" fill="#A5B4FC" fill-opacity="1.000000" fill-rule="nonzero"/>
		<path id="Vector" d="M101.922 35.7215L101.922 87.5885L43.0358 87.5885C41.6444 87.5885 40.2667 87.3241 38.9813 86.8105C37.6958 86.2969 36.5278 85.5441 35.5441 84.595C34.5603 83.6459 33.7798 82.5192 33.2474 81.2791C32.715 80.0391 32.4409 78.71 32.4409 77.3678L32.4409 34L100.137 34C100.61 34.0015 101.063 34.1833 101.397 34.5059C101.732 34.8284 101.92 35.2654 101.922 35.7215Z" fill="#A78BFA" fill-opacity="1.000000" fill-rule="nonzero"/>
		<path id="Vector" d="M128.545 92.6698C128.555 94.5807 127.941 96.4459 126.79 98.0009C125.941 98.2488 125.057 98.3705 124.171 98.3618C121.606 98.3611 119.146 97.3779 117.333 95.6285C115.52 93.879 114.5 91.5065 114.5 89.0325C114.491 87.1003 115.115 85.215 116.284 83.6459C117.723 83.265 119.234 83.21 120.699 83.4847C122.164 83.7594 123.544 84.3567 124.73 85.23C125.917 86.1031 126.878 87.2289 127.54 88.5193C128.202 89.8097 128.546 91.2301 128.545 92.6698Z" fill="#C4B5FD" fill-opacity="1.000000" fill-rule="nonzero"/>
		<path id="Vector" d="M66.1741 92.6698C66.1726 94.4071 65.6683 96.1095 64.718 97.5852C63.7677 99.0608 62.4092 100.251 60.7954 101.022C59.1816 101.793 57.3768 102.114 55.5841 101.949C53.7914 101.784 52.0822 101.14 50.6487 100.088C49.2153 99.0361 48.1149 97.6193 47.4712 95.9968C46.8275 94.3743 46.6661 92.6107 47.0055 90.9045C47.3447 89.1984 48.1711 87.6176 49.3915 86.34C50.6118 85.0624 52.1777 84.139 53.9127 83.6737C54.752 83.4258 55.6256 83.304 56.5032 83.3127C57.7753 83.3138 59.0347 83.5568 60.2094 84.0277C61.384 84.4987 62.451 85.1885 63.3492 86.0575C64.2473 86.9265 64.9592 87.9578 65.4438 89.0924C65.9286 90.2271 66.1768 91.4426 66.1741 92.6698Z" fill="#A5B4FC" fill-opacity="1.000000" fill-rule="nonzero"/>
		<path id="Vector" d="M66.1741 92.6699C66.1702 94.5786 65.5573 96.4401 64.4183 98.001C63.5693 98.2489 62.6862 98.3706 61.7991 98.3619C59.2345 98.3612 56.775 97.3781 54.9615 95.6285C53.1481 93.8792 52.1289 91.5066 52.1282 89.0325C52.1238 87.1096 52.7482 85.2343 53.9127 83.6737C54.7518 83.4258 55.6256 83.304 56.5032 83.3127C57.7753 83.3138 59.0347 83.5568 60.2094 84.0277C61.384 84.4987 62.4509 85.1885 63.3491 86.0575C64.2473 86.9265 64.9591 87.9578 65.4438 89.0924C65.9286 90.2271 66.1766 91.4426 66.1741 92.6699Z" fill="#C4B5FD" fill-opacity="1.000000" fill-rule="nonzero"/>
		<path id="Vector" d="M34.6771 78.7257L7.27625 78.7257C6.70374 78.7257 6.15466 78.5063 5.74976 78.1157C5.34497 77.7252 5.11755 77.1956 5.11755 76.6433C5.11755 76.0909 5.34497 75.5613 5.74976 75.1708C6.15466 74.7802 6.70374 74.5608 7.27625 74.5608L34.6771 74.5608C35.2496 74.5608 35.7987 74.7802 36.2035 75.1708C36.6084 75.5613 36.8358 76.0909 36.8358 76.6433C36.8358 77.1956 36.6084 77.7252 36.2035 78.1157C35.7987 78.5063 35.2496 78.7257 34.6771 78.7257ZM56.5085 69.2546L18.2769 69.2546C17.7043 69.2546 17.1553 69.0353 16.7505 68.6448C16.3456 68.2543 16.1182 67.7245 16.1182 67.1722C16.1182 66.62 16.3456 66.0902 16.7505 65.6997C17.1553 65.3092 17.7043 65.0898 18.2769 65.0898L56.5085 65.0898C57.0811 65.0898 57.6301 65.3092 58.035 65.6997C58.4398 66.0902 58.6672 66.62 58.6672 67.1722C58.6672 67.7245 58.4398 68.2543 58.035 68.6448C57.6301 69.0353 57.0811 69.2546 56.5085 69.2546ZM17.0881 58.2593L2.15869 58.2593C1.58618 58.2593 1.03711 58.0399 0.632324 57.6494C0.227417 57.2589 0 56.7291 0 56.1769C0 55.6246 0.227417 55.0948 0.632324 54.7043C1.03711 54.3138 1.58618 54.0945 2.15869 54.0945L17.0881 54.0945C17.6606 54.0945 18.2097 54.3138 18.6145 54.7043C19.0194 55.0948 19.2468 55.6246 19.2468 56.1769C19.2468 56.7291 19.0194 57.2589 18.6145 57.6494C18.2097 58.0399 17.6606 58.2593 17.0881 58.2593ZM41.0265 46.7559L14.6733 46.7559C14.1008 46.7559 13.5518 46.5365 13.1469 46.1459C12.7421 45.7554 12.5146 45.2257 12.5146 44.6733C12.5146 44.1211 12.7421 43.5914 13.1469 43.2009C13.5518 42.8103 14.1008 42.5909 14.6733 42.5909L41.0265 42.5909C41.599 42.5909 42.1481 42.8103 42.553 43.2009C42.9578 43.5914 43.1852 44.1211 43.1852 44.6733C43.1852 45.2257 42.9578 45.7554 42.553 46.1459C42.1481 46.5365 41.599 46.7559 41.0265 46.7559Z" fill="#A5B4FC" fill-opacity="1.000000" fill-rule="nonzero"/>
	</g>
</svg>
