<svg width="136.000000" height="136.000000" viewBox="0 0 136 136" fill="none" xmlns="http://www.w3.org/2000/svg" xmlns:xlink="http://www.w3.org/1999/xlink">
	<desc>
			Created with Pixso.
	</desc>
	<defs>
		<clipPath id="clip2_248">
			<rect id="Icon / garantee" width="136.000000" height="136.000000" fill="white" fill-opacity="0"/>
		</clipPath>
	</defs>
	<g clip-path="url(#clip2_248)">
		<path id="Vector" d="M37.7654 115.843C19.4059 109.501 15.3116 94.6765 14.8392 76.7833C14.7291 72.6152 14.8214 68.4729 14.9304 64.3075C23.0352 62.8951 30.7961 60.2943 37.912 56.0698C42.2019 58.6146 46.5483 60.4875 51.2843 61.9835C51.6139 62.0876 51.6798 62.4933 52.3717 62.4933C52.7065 62.4933 52.6366 62.3998 52.8694 62.4661C55.6586 63.2611 58.0159 63.8053 60.8964 64.3075C61.1587 74.2556 61.3794 85.5455 58.4429 95.0542C55.1289 105.785 48.4479 112.255 38.0586 115.843L37.7654 115.843ZM52.7712 75.816C52.5353 75.5753 52.2153 75.4401 51.8817 75.4401C51.5481 75.4402 51.2283 75.5754 50.9923 75.8164L34.8444 92.3096L27.2162 84.5186C27.0995 84.399 26.9608 84.3043 26.8082 84.2396C26.6555 84.1749 26.4919 84.1416 26.3268 84.1416C26.1615 84.1416 25.9979 84.1748 25.8453 84.2395C25.6926 84.3041 25.554 84.3988 25.4373 84.5183C25.3202 84.6377 25.2273 84.7797 25.1639 84.9358C25.1006 85.092 25.0679 85.2594 25.0679 85.4285C25.0679 85.5975 25.1006 85.765 25.1639 85.9211C25.2273 86.0773 25.3202 86.2192 25.4373 86.3387L33.9542 95.0393C34.0712 95.1589 34.2101 95.2539 34.3629 95.3186C34.5159 95.3834 34.6797 95.4167 34.8452 95.4167C35.0107 95.4167 35.1747 95.3834 35.3275 95.3186C35.4805 95.2539 35.6193 95.1589 35.7362 95.0393L52.7715 77.6353C52.8885 77.5159 52.9814 77.3741 53.0448 77.218C53.1082 77.0619 53.1407 76.8947 53.1407 76.7256C53.1407 76.5566 53.108 76.3893 53.0447 76.2333C52.9813 76.0771 52.8883 75.9354 52.7712 75.816ZM61.2482 47.4408L61.2482 34.8933C61.2491 34.6764 61.334 34.4685 61.4843 34.3151C61.6344 34.1615 61.8379 34.0748 62.0503 34.0739L91.9298 34.0739L91.9298 47.4408L61.2482 47.4408ZM94.4479 20.8596C94.449 20.6426 94.5338 20.4347 94.684 20.2812C94.8342 20.1277 95.0377 20.041 95.2501 20.04L109.445 20.04C109.658 20.041 109.861 20.1277 110.011 20.2812C110.161 20.4347 110.246 20.6426 110.247 20.8596L110.247 47.4408L94.4479 47.4408L94.4479 20.8596ZM34.0157 40.6256C34.0157 41.2966 33.4639 41.8328 32.9384 42.1501C32.248 42.5671 31.4034 42.7593 30.606 42.7593L17.7191 42.7593C16.9222 42.7593 16.0779 42.5669 15.3881 42.1499C14.8628 41.8325 14.3109 41.2966 14.3109 40.6256L14.3109 38.8474C14.3109 38.177 14.863 37.6414 15.3881 37.3243C16.0781 36.9075 16.9222 36.7151 17.7191 36.7151L29.3881 36.7224C29.6071 36.7621 29.6646 36.8279 29.9156 36.8247L33.0214 36.7999C33.3645 36.8918 33.9312 37.1865 34.0157 37.4714L34.0157 40.6256Z" fill="#C4B5FD" fill-opacity="1.000000" fill-rule="evenodd"/>
		<path id="Vector" d="M53.0951 75.4857C53.2548 75.6484 53.3813 75.8418 53.4678 76.0547C53.5542 76.2675 53.5986 76.4956 53.5986 76.726C53.5986 76.9564 53.5542 77.1846 53.4678 77.3973C53.3813 77.6102 53.2548 77.8035 53.0951 77.9662L36.0598 95.3704C35.9004 95.5333 35.7109 95.6626 35.5026 95.7507C35.2942 95.839 35.0708 95.8844 34.8451 95.8844C34.6195 95.8844 34.3961 95.839 34.1877 95.7507C33.9792 95.6626 33.7899 95.5333 33.6304 95.3704L25.1134 86.6697C24.9539 86.5068 24.8271 86.3134 24.7407 86.1005C24.6543 85.8876 24.6099 85.6593 24.6099 85.4288C24.6099 85.1982 24.6543 84.9701 24.7407 84.7571C24.8271 84.5442 24.9539 84.3508 25.1134 84.1879C25.7817 83.502 26.8699 83.502 27.54 84.1879L34.8445 91.6482L50.6687 75.4857C51.3384 74.8014 52.4265 74.8014 53.0951 75.4857ZM97.4248 74.4718L97.4248 60.438C97.4248 59.4684 98.1946 58.6832 99.1425 58.6832C100.09 58.6832 100.859 59.4681 100.859 60.438L100.859 74.4718C100.859 75.4401 100.09 76.2249 99.1425 76.2249C98.1946 76.2249 97.4248 75.4398 97.4248 74.4718ZM83.6871 74.4718L83.6871 60.438C83.6871 59.9728 83.868 59.5267 84.1901 59.1978C84.512 58.8689 84.9487 58.6841 85.4041 58.6841C85.8594 58.6841 86.296 58.8689 86.618 59.1978C86.9401 59.5267 87.121 59.9728 87.121 60.438L87.121 74.4718C87.121 74.9368 86.9401 75.3826 86.6183 75.7114C86.2964 76.0402 85.86 76.2249 85.4048 76.2249C85.1793 76.225 84.9561 76.1797 84.7477 76.0917C84.5394 76.0037 84.3501 75.8745 84.1906 75.7117C84.031 75.549 83.9045 75.3556 83.8181 75.1429C83.7317 74.9302 83.6873 74.702 83.6871 74.4718ZM69.9495 74.4718L69.9495 60.438C69.9493 60.2076 69.9937 59.9795 70.0798 59.7667C70.166 59.5538 70.2924 59.3604 70.4518 59.1975C70.6111 59.0345 70.8003 58.9053 71.0087 58.817C71.2169 58.7288 71.4402 58.6833 71.6656 58.6832C72.1211 58.6833 72.558 58.8683 72.8801 59.1973C73.2021 59.5264 73.3832 59.9727 73.3833 60.438L73.3833 74.4718C73.3829 74.9369 73.2018 75.3828 72.8798 75.7115C72.5576 76.0403 72.121 76.225 71.6656 76.2249C71.2104 76.2249 70.774 76.04 70.4521 75.7113C70.1304 75.3826 69.9496 74.9366 69.9495 74.4718ZM105.048 103.181C105.048 105.858 102.913 108.038 100.288 108.038C97.6649 108.038 95.5306 105.858 95.5306 103.181C95.5306 100.499 97.6649 98.3191 100.288 98.3191C102.913 98.3191 105.048 100.499 105.048 103.181ZM74.7782 103.181C74.7782 105.858 72.6439 108.038 70.0205 108.038C67.3987 108.038 65.2628 105.858 65.2628 103.181C65.2628 100.499 67.3984 98.3191 70.0205 98.3191C72.6439 98.3191 74.7782 100.499 74.7782 103.181ZM37.9119 115.399C48.4215 111.771 54.8141 105.25 58.0061 94.9133C60.861 85.67 60.7104 74.6326 60.4486 64.7037C58.3132 64.3307 56.1952 63.8606 54.1007 63.295C53.6465 63.1737 53.1979 63.0453 52.7463 62.9166C52.6234 62.9454 52.4977 62.9603 52.3716 62.9611C51.9115 62.9611 51.47 62.7645 51.1488 62.4304C46.3334 60.9093 41.8186 58.9286 37.9119 56.611C31.3474 60.5068 23.2898 63.3246 15.3781 64.704C15.1177 74.6328 14.9626 85.6704 17.819 94.9136C21.0126 105.25 27.4052 111.771 37.9119 115.399ZM119.544 50.4822L50.3197 50.4822L53.59 59.5138C56.5657 60.3743 59.3569 61.001 62.3788 61.4634C63.2007 61.5906 63.8201 62.3015 63.8418 63.15C64.0255 69.9377 64.2224 77.3049 63.5033 84.4254L101.192 84.4282C104.687 84.4282 107.651 82.4933 109.12 79.2517L121.067 52.9222C121.189 52.661 121.244 52.3723 121.226 52.0835C121.208 51.7947 121.119 51.515 120.967 51.2711C120.815 51.0271 120.604 50.8267 120.355 50.6887C120.106 50.5507 119.827 50.4796 119.544 50.4822ZM61.7062 34.8934C61.7062 34.7013 61.864 34.5416 62.0505 34.5416L91.4719 34.5416L91.4719 46.9731L61.7062 46.9731L61.7062 34.8934ZM95.2501 20.5078L109.445 20.5078C109.632 20.5078 109.789 20.6675 109.789 20.8596L109.789 46.9731L94.9056 46.9731L94.9056 20.8596C94.9056 20.6675 95.0634 20.5078 95.2501 20.5078ZM33.5579 37.6133L33.5579 40.6257C33.5579 41.3959 32.2687 42.2916 30.606 42.2916L17.7191 42.2916C16.0579 42.2916 14.7687 41.3959 14.7687 40.6257L14.7687 38.8475C14.7687 38.0789 16.0579 37.1831 17.7191 37.1831L29.3081 37.1831C29.4542 37.2097 29.5515 37.2952 29.9215 37.2925L32.9052 37.2526C33.264 37.3486 33.4943 37.5156 33.5579 37.6133ZM101.192 87.9363C106.059 87.9363 110.189 85.2416 112.236 80.7286L124.184 54.3979C125.76 50.9282 123.284 46.9731 119.544 46.9731L113.223 46.9731L113.223 20.8596C113.223 18.731 111.529 17 109.445 17L95.2501 17C93.1663 17 91.4719 18.731 91.4719 20.8596L91.4719 31.0338L62.0505 31.0338C59.9655 31.0338 58.2723 32.7648 58.2723 34.8934L58.2723 46.9731L49.052 46.9731L46.2549 39.2498C45.0265 35.8544 41.9589 33.6741 38.4224 33.6741C38.3861 33.6741 38.347 33.6741 38.311 33.6769L33.2117 33.7419C32.9281 33.698 32.6418 33.6752 32.355 33.6738L17.7191 33.6738C14.1392 33.6738 11.3334 35.9473 11.3334 38.8475L11.3334 40.6257C11.3334 43.5259 14.1392 45.7994 17.7191 45.7994L30.606 45.7994C34.1871 45.7994 36.9913 43.5259 36.9913 40.6257L36.9712 37.2009L38.4226 37.1831C40.5365 37.1831 42.2992 38.4368 43.0342 40.4662L49.437 58.1571C45.5549 56.7469 41.946 55.0249 38.8062 53.0721C38.5369 52.9047 38.2278 52.816 37.9126 52.816C37.5973 52.816 37.2882 52.9047 37.0189 53.0721C30.2677 57.2673 21.7216 60.1997 13.4475 61.4636C13.0487 61.5248 12.6837 61.7273 12.4163 62.0355C12.1488 62.3439 11.9961 62.7384 11.9846 63.1503C11.6982 73.7251 11.3755 85.7103 14.5443 95.9688C18.1039 107.493 25.5762 114.999 37.3835 118.915C37.7283 119.028 38.0994 119.028 38.4441 118.915C49.4498 115.263 56.6863 108.492 60.502 98.257C61.2574 98.3577 62.561 98.3191 63.3568 98.3191C59.4984 103.836 63.3652 111.546 70.0203 111.546C76.6919 111.546 80.5342 103.811 76.6821 98.3191L93.6262 98.3191C89.7744 103.81 93.6162 111.546 100.288 111.546C106.945 111.546 110.809 103.835 106.951 98.3191L113.506 98.3191C114.457 98.3191 115.224 97.5342 115.224 96.5659C115.224 95.5977 114.457 94.8113 113.506 94.8113L61.6221 94.8113C62.2473 92.582 62.7174 90.2806 63.0692 87.9348L101.192 87.9363Z" fill="#8B5CF6" fill-opacity="1.000000" fill-rule="evenodd"/>
	</g>
</svg>
