<svg width="50.000000" height="74.000000" viewBox="0 0 50 74" fill="none" xmlns="http://www.w3.org/2000/svg" xmlns:xlink="http://www.w3.org/1999/xlink">
	<desc>
			Created with Pixso.
	</desc>
	<defs/>
	<mask id="mask3_188" mask-type="alpha" maskUnits="userSpaceOnUse" x="0.000000" y="0.000000" width="50.000000" height="74.000000">
		<path id="Vector" d="M0 0L50 0L50 74L0 74L0 0Z" fill="#000000" fill-opacity="1.000000" fill-rule="evenodd"/>
	</mask>
	<g mask="url(#mask3_188)">
		<path id="Vector" d="M25.9083 -5.72205e-05C23.1091 0.000748634 20.4248 1.10045 18.4454 3.05731C16.4661 5.01416 15.3538 7.66802 15.353 10.4354L15.353 15.176L10.5578 15.176C9.17068 15.1749 7.79689 15.4442 6.51511 15.9685C5.23332 16.4928 4.0687 17.2619 3.08786 18.2317C2.10701 19.2014 1.32921 20.3529 0.798935 21.6201C0.268661 22.8874 -0.00364685 24.2456 -0.00244141 25.617L-0.00244141 36.0488L15.3505 36.0488L15.3505 45.5301L10.5554 45.5301C7.75537 45.5297 5.06987 46.6289 3.08951 48.5859C1.10913 50.5428 -0.00393677 53.1971 -0.00491333 55.9654L-0.00491333 73.9943L10.5603 73.9943C11.9462 73.9937 13.3183 73.7233 14.5984 73.198C15.8784 72.6732 17.0413 71.904 18.0207 70.9347C19.0001 69.9654 19.7767 68.8148 20.3063 67.5484C20.8358 66.2821 21.1079 64.9256 21.1071 63.5556L21.1206 63.5556L21.1206 56.6678L21.0923 56.6715L21.0923 12.7905L21.1157 12.796L21.1157 10.4372C21.1181 9.17949 21.6237 7.97376 22.522 7.08321C23.4204 6.19265 24.6386 5.68961 25.9108 5.68383L44.2484 5.68383L44.2484 10.4372C44.2445 11.6944 43.7372 12.8989 42.8374 13.7872C41.9377 14.6756 40.7187 15.1756 39.4471 15.1779L23.2858 15.1779L23.2858 20.8678L39.4446 20.8678C42.2438 20.868 44.9285 19.7688 46.9079 17.8122C48.8875 15.8555 49.9997 13.2016 50 10.4342L50 -0.0012722L25.9083 -5.72205e-05ZM15.353 30.3582L5.75905 30.3582L5.75905 25.6176C5.76115 24.3584 6.26732 23.1512 7.16701 22.2598C8.06664 21.3684 9.28664 20.8653 10.5603 20.8605L15.3554 20.8605L15.353 30.3582ZM15.353 63.5608C15.3508 64.8177 14.8451 66.0231 13.9465 66.9122C13.0478 67.8017 11.8294 68.3031 10.5578 68.3062L5.75658 68.3062L5.75658 55.9685C5.75774 54.7105 6.26416 53.5046 7.16447 52.6156C8.06485 51.7265 9.28537 51.2274 10.5578 51.2279L15.353 51.2279L15.353 63.5608ZM23.2858 36.0482L35.3965 36.0482L35.3965 40.7936C35.3918 42.0506 34.8842 43.2546 33.9846 44.1428C33.0851 45.031 31.8666 45.5313 30.5952 45.5343L23.2858 45.5343L23.2858 51.2279L30.5977 51.2279C31.9841 51.2286 33.3569 50.9592 34.6379 50.435C35.9188 49.9109 37.0828 49.1422 38.063 48.1731C39.0434 47.2039 39.8208 46.0532 40.3511 44.7868C40.8813 43.5204 41.1538 42.1631 41.153 40.7924L41.158 40.7924L41.158 30.357L23.2858 30.357L23.2858 36.0482Z" fill="#A78BFA" fill-opacity="1.000000" fill-rule="nonzero"/>
	</g>
</svg>
