<svg width="75.000000" height="75.000000" viewBox="0 0 75 75" fill="none" xmlns="http://www.w3.org/2000/svg" xmlns:xlink="http://www.w3.org/1999/xlink">
	<desc>
			Created with Pixso.
	</desc>
	<defs>
		<clipPath id="clip1106_686">
			<rect id="Icon / Quotes" width="75.000008" height="75.000008" fill="white" fill-opacity="0"/>
		</clipPath>
	</defs>
	<g clip-path="url(#clip1106_686)">
		<path id="“" d="M33.5387 32.5894C33.5387 37.2322 32.8345 41.2202 31.426 44.5535C30.0176 48.0059 28.1984 50.8035 25.9683 52.9465C23.7383 55.2083 21.2148 56.8154 18.3979 57.7678C15.4636 58.8394 12.588 59.375 9.77112 59.375L9.77112 53.125C12.8228 53.125 15.6984 52.0535 18.3979 49.9106C20.98 47.887 22.5059 45.0894 22.9753 41.5178C22.6232 41.637 22.2125 41.7559 21.743 41.875C21.3909 41.9941 20.98 42.113 20.5106 42.2322C19.9237 42.3511 19.2781 42.4106 18.574 42.4106C15.0528 42.4106 12.1185 41.0417 9.77112 38.3035C7.42371 35.6846 6.25 32.5894 6.25 29.0178C6.25 25.4465 7.48236 22.2917 9.9472 19.5535C12.2946 16.9346 15.4636 15.625 19.4542 15.625C23.9143 15.625 27.3768 17.2917 29.8416 20.625C32.3063 24.0774 33.5387 28.0654 33.5387 32.5894ZM68.75 32.5894C68.75 37.2322 68.0458 41.2202 66.6373 44.5535C65.2289 48.0059 63.4096 50.8035 61.1796 52.9465C58.9495 55.2083 56.426 56.8154 53.6091 57.7678C50.6749 58.8394 47.7993 59.375 44.9824 59.375L44.9824 53.125C48.0341 53.125 50.9096 52.0535 53.6091 49.9106C56.1913 47.887 57.7172 45.0894 58.1866 41.5178C57.8345 41.637 57.4237 41.7559 56.9542 41.875C56.6021 41.9941 56.1913 42.113 55.7218 42.2322C55.1349 42.3511 54.4894 42.4106 53.7852 42.4106C50.2641 42.4106 47.3298 41.0417 44.9824 38.3035C42.6349 35.6846 41.4612 32.5894 41.4612 29.0178C41.4612 25.4465 42.6937 22.2917 45.1584 19.5535C47.5059 16.9346 50.6749 15.625 54.6655 15.625C59.1256 15.625 62.588 17.2917 65.0528 20.625C67.5176 24.0774 68.75 28.0654 68.75 32.5894Z" fill="#EDE9FE" fill-opacity="1.000000" fill-rule="evenodd"/>
	</g>
</svg>
